<?xml version="1.0" encoding="iso-8859-1"?>
<!-- Uploaded to: SVG Repo, www.svgrepo.com, Generator: SVG Repo Mixer Tools -->
<svg height="800px" width="800px" version="1.1" id="Layer_1" xmlns="http://www.w3.org/2000/svg" xmlns:xlink="http://www.w3.org/1999/xlink" 
	 viewBox="0 0 511.999 511.999" xml:space="preserve">
<g>
	<path style="fill:#F7B239;" d="M255.368,326.389c60.002-125.44,141.177-120.126,141.177-120.126
		c50.802,0,91.976,59.892,91.976,133.785s-41.174,133.785-91.976,133.785c-38.706,0-71.816-34.772-85.39-84.01
		c-1.735-6.292,6.207-10.605,10.63-5.791c5.669,6.182,12.022,12.01,17.533,14.307c21.589,9.005,45.169,7.257,48.212,6.989
		c0.061-0.012,0.098-0.012,0.147-0.012c0.037-0.012,0.073-0.012,0.098-0.012c0.061-0.012,0.086-0.012,0.086-0.012
		c24.289-3.152,47.735-26.354,56.813-58.963c11.167-40.123-3.665-79.306-33.135-87.516c-26.415-7.343-55.591,12.67-69.422,45.768
		c-6.365,15.236-18.021,27.771-33.22,34.222c-6.048,2.578-13.098,4.667-21.186,5.742c-10.422,1.393-17.056,11.766-13.77,21.76
		c0.281,0.843,0.525,1.625,0.733,2.358c12.988,44.595,4.252,90.119-27.136,118.305c-47.442,42.604-128.678,29.506-181.459-29.262
		c-43.447-48.37-54.064-112.599-29.995-157.561c10.385,62.164,31.033,98.525,52.805,119.698
		c21.76,21.173,44.644,27.148,59.513,28.541c9.945,0.929,24.106-0.489,27.869-1.026c30.899-4.423,54.369-26.281,54.369-52.598
		c0-29.506-29.518-53.416-65.94-53.416c-4.105,0-8.113,0.305-12.01,0.88c-7.832-12.792-13.721-26.158-17.618-39.61
		c-1.698-5.84-3.018-11.705-3.959-17.545c8.992-0.318,18.681-1.833,28.553-4.655c36.018-10.287,60.796-34.051,55.359-53.062
		c-5.425-19.011-39.024-26.073-75.03-15.785c-13.855,3.959-26.061,9.921-35.505,16.836l-26.891-49.678
		c17.288-23.935,48.431-39.916,83.973-39.916c54.345,0,98.415,37.362,98.415,83.436c0,26.696-14.796,50.46-37.802,65.732
		c5.449,4.728,10.703,9.884,15.7,15.443C244.47,310.75,250.298,318.447,255.368,326.389z"/>
	<path style="fill:#F7B239;" d="M460.86,114.3c7.172,10.581,6.475,13.342-3.25,21.21c-28.26,22.884-60.344,36.409-96.716,40.16
		c-29.738,3.067-57.216-1.588-81.261-20.379c-27.71-21.662-44.448-49.702-48.358-84.914c-0.684-6.146,4.692-9.872,7.233-5.767
		c7.832,12.621,17.801,23.422,29.237,33.086c32.377,27.368,68.114,31.473,105.794,13.672c15.089-7.135,28.7-17.594,42.469-27.246
		c13.207-9.249,13-9.725,22.921,2.382C446.406,95.644,454.25,104.562,460.86,114.3z"/>
	<path style="fill:#F7B239;" d="M376.117,41.079c3.103,3.103,3.103,8.137,0,11.24l-38.743,38.755c-3.103,3.103-8.149,3.103-11.253,0
		L287.379,52.32c-3.103-3.103-3.103-8.137,0-11.24l38.743-38.743c3.103-3.116,8.149-3.116,11.253,0L376.117,41.079z"/>
</g>
</svg>